<?xml version="1.0" encoding="utf-8"?>
<!-- Generator: Adobe Illustrator 15.0.2, SVG Export Plug-In  -->
<!DOCTYPE svg PUBLIC "-//W3C//DTD SVG 1.1//EN" "http://www.w3.org/Graphics/SVG/1.1/DTD/svg11.dtd" [
	<!ENTITY ns_flows "http://ns.adobe.com/Flows/1.0/">
]>
<svg version="1.1"
	 xmlns="http://www.w3.org/2000/svg" xmlns:xlink="http://www.w3.org/1999/xlink" xmlns:a="http://ns.adobe.com/AdobeSVGViewerExtensions/3.0/"
	 x="0px" y="0px" width="214px" height="28px" viewBox="-5.786 -2.892 214 28"
	 overflow="visible" enable-background="new -5.786 -2.892 214 28" xml:space="preserve">
<defs>
</defs>
<path d="M16.957,0l5.898,17.016l3.982-11.442c1.533-4.336,0.058-4.72-2.507-5.103V0.412h6.635v0.059
	c-1.917,0.532-2.3,0.738-3.834,5.103L21.38,22.059h-0.058L15.483,5.131L9.791,22.059h-0.06L3.833,5.574
	C2.27,1.238,1.916,1.003,0,0.471V0.412h8.257v0.059C6.547,0.854,5.75,1.268,7.224,5.574l3.982,11.501L16.898,0H16.957z"/>
<path d="M38.672,21.35V10.852c6.104,0.03,6.488,2.389,7.461,4.63h0.059V6.192h-0.059c-0.825,2.182-1.357,4.423-7.461,4.483V0.707
	h2.36c6.487,0,8.11,2.212,8.788,5.162h0.059V0.412H32.626v0.059c1.917,0.384,2.802,0.384,2.802,6.282v8.553
	c0,5.898-1.032,5.898-3.096,6.282v0.058H51.06v-5.898H51c-0.678,2.949-2.153,5.603-8.493,5.603H38.672z"/>
<path d="M63.944,21.646c5.455,0,12.268-2.006,12.268-10.913c0-5.072-2.743-7.904-6.016-9.349c-2.507-1.09-5.22-1.003-7.697-1.003
	c-2.124,0-8.406,0.03-9.408,0.03v0.059c2.065,0.383,3.097,0.383,3.097,6.282v8.552c0,5.898-1.032,5.898-3.097,6.282v0.06H63.944z
	 M72.584,11.058c0,8.316-5.869,10.292-10.293,10.292h-2.89V0.677h2.89C66.716,0.677,72.584,3.391,72.584,11.058"/>
<path d="M84.076,0.412h-7.667v0.059c2.212,0.384,3.392,0.384,3.392,6.282v8.553c0,5.897-1.18,5.897-3.392,6.281v0.059h7.078v-0.059
	c-2.212-0.384-3.392-0.384-3.392-6.281V1.003l16.751,21.38h0.059V6.753c-0.03-5.898,1.18-5.898,3.391-6.282V0.412h-7.077v0.059
	c2.211,0.384,3.391,0.384,3.391,6.282v9.73L84.076,0.412z"/>
<path d="M108.374,21.35V10.852c6.104,0.03,6.487,2.389,7.462,4.63h0.058V6.192h-0.058c-0.827,2.182-1.358,4.423-7.462,4.483V0.707
	h2.357c6.49,0,8.111,2.212,8.79,5.162h0.059V0.412h-17.252v0.059c1.917,0.384,2.803,0.384,2.803,6.282v8.553
	c0,5.898-1.034,5.898-3.098,6.282v0.058h18.727v-5.898h-0.06c-0.678,2.949-2.152,5.603-8.492,5.603H108.374z"/>
<path d="M139.009,15.836c0-2.773-1.562-4.659-4.218-5.632c-1.532-0.562-2.624-0.856-4.216-1.475
	c-1.976-0.738-3.392-1.946-3.392-4.011c0-2.802,1.828-4.394,4.424-4.394c3.479,0,5.25,2.89,6.223,5.603h0.059V1.74
	c0,0-2.803-1.652-6.252-1.652c-3.745,0-7.078,1.946-7.078,6.163c0,2.537,1.858,4.542,3.893,5.338
	c1.77,0.678,2.418,0.826,4.335,1.534c1.888,0.706,3.393,1.68,3.393,3.893c0,2.802-1.889,4.659-4.896,4.659
	c-3.569,0-5.781-2.978-6.754-5.928h-0.058v4.424c0,0,2.8,1.74,6.841,1.74C135.794,21.911,139.009,19.61,139.009,15.836"/>
<path d="M152.167,21.646c5.456,0,12.268-2.006,12.268-10.913c0-5.072-2.743-7.904-6.016-9.349c-2.506-1.09-5.221-1.003-7.697-1.003
	c-2.124,0-8.406,0.03-9.408,0.03v0.059c2.065,0.383,3.098,0.383,3.098,6.282v8.552c0,5.898-1.032,5.898-3.098,6.282v0.06H152.167z
	 M160.807,11.058c0,8.316-5.87,10.292-10.293,10.292h-2.89V0.677h2.89C154.937,0.677,160.807,3.391,160.807,11.058"/>
<path d="M176.948,13.27h-8.316l4.158-10.351L176.948,13.27z M175.295,0.412h-1.769l-6.488,16.072
	c-1.74,4.277-2.064,4.571-4.129,5.104v0.059h6.34v-0.059c-2.153-0.384-3.538-0.826-1.915-5.104l1.207-2.978h8.494l1.209,2.978
	c1.622,4.277,0.441,4.72-1.179,5.104v0.059h8.698v-0.059c-1.916-0.532-2.063-0.826-3.834-5.104L175.295,0.412z"/>
<path d="M195.012,11.442l4.364-6.754c1.71-2.654,2.948-3.686,4.719-4.217V0.412h-6.931v0.059c2.861,0.383,3.687,1.563,1.917,4.217
	l-4.218,6.547l-4.039-6.547c-1.623-2.654-0.736-3.834,1.326-4.217V0.412h-8.995v0.059c1.918,0.531,2.331,1.563,3.981,4.217
	l4.63,7.521v3.096c0,5.898-0.884,5.898-2.801,6.282v0.06h8.847v-0.06c-1.916-0.384-2.801-0.384-2.801-6.282V11.442z"/>
</svg>
